<svg id="colourboxLogo-svg" width="2005" height="409" viewBox="0 0 2005 409" xmlns="http://www.w3.org/2000/svg"><title>Logo to svg</title><defs><linearGradient x1="10.635%" y1="93.882%" x2="103.983%" y2="39.429%" id="linearGradient-1"><stop stop-color="#186131" offset="0%"/><stop stop-color="#449741" offset="14.78%"/><stop stop-color="#5ABA47" offset="26.6%"/><stop stop-color="#5ABA47" offset="46.31%"/><stop stop-color="#6ABD45" offset="52.22%"/><stop stop-color="#47B649" offset="58.13%"/><stop stop-color="#007B7B" offset="75.37%"/><stop stop-color="#00404B" offset="100%"/></linearGradient><linearGradient x1="16.653%" y1="60.818%" x2="86.375%" y2="-33.585%" id="linearGradient-2"><stop stop-color="#00773C" offset="0%"/><stop stop-color="#3BB649" offset="22.674%"/><stop stop-color="#6ABD45" offset="54.19%"/><stop stop-color="#8BC63F" offset="72.91%"/><stop stop-color="#9ECC3B" offset="77.34%"/><stop stop-color="#B3D335" offset="80.3%"/><stop stop-color="#A7CF3F" offset="84.24%"/><stop stop-color="#91C851" offset="100%"/></linearGradient><linearGradient x1="92.297%" y1="25.393%" x2="8.152%" y2="66.39%" id="linearGradient-3"><stop stop-color="#192652" offset="0%"/><stop stop-color="#008C96" offset="100%"/></linearGradient><linearGradient x1="-1.313%" y1="93.009%" x2="99.112%" y2=".014%" id="linearGradient-4"><stop stop-color="#EE2424" offset="0%"/><stop stop-color="#F14722" offset="10.18%"/><stop stop-color="#F14722" offset="10.18%"/><stop stop-color="#F14722" offset="10.18%"/><stop stop-color="#F7911E" offset="31.33%"/><stop stop-color="#F9A11B" offset="48.139%"/><stop stop-color="#F8941C" offset="50.315%"/><stop stop-color="#F8941C" offset="50.315%"/><stop stop-color="#F8941C" offset="50.315%"/><stop stop-color="#F47A20" offset="54.409%"/><stop stop-color="#F15D22" offset="57.131%"/><stop stop-color="#EF4023" offset="63.948%"/><stop stop-color="#ED2024" offset="70.5%"/><stop stop-color="#ED2024" offset="86.21%"/><stop stop-color="#851619" offset="100%"/></linearGradient><linearGradient x1="-10.936%" y1="92.196%" x2="103.44%" y2="12.194%" id="linearGradient-5"><stop stop-color="#F15722" offset="0%"/><stop stop-color="#F37121" offset="26.11%"/><stop stop-color="#F58120" offset="37.188%"/><stop stop-color="#E14F25" offset="42.158%"/><stop stop-color="#D61F26" offset="49.054%"/><stop stop-color="#550F0E" offset="100%"/></linearGradient></defs><g id="Page-1" fill="none" fill-rule="evenodd"><g id="Logo-to-svg"><g id="Group"><g id="colourboxLogo-text" fill="#333433"><g id="Group"><path d="M57.1 69.1c-5.6 12.4-8.7 26.9-9.2 43.3v8.5c0 2.9.1 5.8.3 8.8.5 6.1 1.7 12.1 3.4 18s4.6 11.1 8.7 15.6c4.2 4.7 9.1 6.3 14.6 7.5 5.5 1.1 11.2 1.7 16.9 1.7h2.4l60.7-.3v34.2h-67c-10.7 0-21-1-30.9-2.9-9.9-1.9-19.2-6.4-28-13.4-10.5-8.6-17.9-19-22.1-31.4-4.2-12.3-6.5-25-6.8-38-.1-2.7-.1-5.4-.1-8 .1-2.6.2-5.3.4-7.9 1.9-29.8 10-51.6 24.3-65.7 14.3-14 35.7-21 64.2-21l65.9-.3v35.6H94.2c-19.1.3-31.5 3.3-37.1 15.7zM362.1 205.9V.6h45.1v205.3zM742.9 170h-38.8c-11.3 0-17.8-1.7-22.2-5.5-4.4-3.7-6.6-11.1-6.6-22.1V42h-46.1v104.2c0 23.2 6.5 39 19.6 47.3 13 8.3 26 12.4 53.1 12.4-.2 0 41 4.5 41-35.9zM742.6 42l.7 163.9h45.4V42zM912.3 42c23.4.2 37 5.6 40.7 16.2 3.7 10.6 5.5 24.8 5.3 42.6v10.3l-44-.3V104c0-15.1 0-23.4-3.6-27.1-3.6-3.7-36.4-3.1-51.4-3.1h-4.6V206h-43.2V42h100.8zM1143.1 96.3c-2.8-10.5-7.8-20.1-15-28.8-8.7-10.6-18.9-17.4-30.7-20.5-11.8-3.1-24.3-4.8-37.5-5h-39.2V.6h-45.4v205.3h44c.2 0 .5-128.4.3-128.4h17.4v.3c8.7 0 28.5 1.3 35.6 3 7.2 1.7 14.8 6.2 19.4 14.5 2.3 3.7 3.9 7.8 5 12.1 1 4.3 1.7 8.8 1.9 13.4 0 2.5-.1 5-.2 7.6-.1 2.6-.3 5.1-.5 7.6-1.7 18.7-9.1 27.9-21 32-13.6 4.7-31.2 4.3-45.1 3.7-3.2-.1-9.7-.3-12.4-.3 0 40.7 41.7 34.8 47.4 34.8 25.7 0 41.4-7.2 55.8-21 14.5-13.8 22.2-32.7 23.3-56.8.8-10.9-.3-21.6-3.1-32.1zM1322.2 187.8c-8.7 7.9-19.2 13.7-31.5 17.4-12.3 3.7-26 4.1-39 4.1-13.1 0-26.9.1-39.1-3.6-12.2-3.7-22.6-9.4-31.3-17.1-8.9-7.9-14.4-19.3-18.9-30.3-4.5-11-6.7-22.3-6.7-33.9 0-11.6 2.2-22.9 6.7-33.9s9.7-21.7 18.6-29.6c8.7-7.7 19.2-13.4 31.5-17.3 12.3-3.8 26.5-4.5 39.5-4.5 12.8 0 26.7.2 38.9 4 12.3 3.8 22.8 9.6 31.5 17.3 8.9 7.9 14.4 19.1 18.9 30.1 4.5 11 6.7 22.3 6.7 33.9 0 11.6-2.2 22.9-6.7 33.9s-10.2 21.9-19.1 29.8v-.3zm-87.4-17.9c1.7.6 3.3 1.1 4.9 1.5 1.6.4 3.1.7 4.5.9 11.6 1.4 22.4-.4 32.6-5.4 10.1-5 16.9-12.4 20.3-22 1.2-3.4 2.1-7.1 2.7-11 .6-3.9.9-7.9.9-11.9-.5-8.8-3-17.2-7.6-25.2-4.6-7.9-11.9-13.7-22.1-17.3-2.2-.8-4.5-1.4-6.9-1.8-2.4-.4-4.7-.7-6.9-.9-11.1-.8-21.5 1.3-31.1 6.3-9.7 5-16.2 12.1-19.5 21.1-1.2 3.4-2.1 7-2.7 10.7-.6 3.7-.8 7.4-.5 11 .2 9.5 2.8 18.4 7.8 26.7 4.9 8.3 12.8 14.2 23.7 17.6v-.3h-.1zM589.2 187.8c-8.7 7.9-19.2 13.7-31.5 17.4-12.3 3.7-26 4.1-39 4.1-13.1 0-26.9.1-39.1-3.6-12.2-3.7-22.6-9.4-31.3-17.1-8.9-7.9-14.4-19.3-18.9-30.3-4.5-11-6.7-22.3-6.7-33.9 0-11.6 2.2-22.9 6.7-33.9s9.7-21.7 18.6-29.6c8.7-7.7 19.2-13.4 31.5-17.3 12.3-3.8 26.5-4.5 39.5-4.5 12.8 0 26.7.2 38.9 4 12.3 3.8 22.8 9.6 31.5 17.3 8.9 7.9 14.4 19.1 18.9 30.1 4.5 11 6.7 22.3 6.7 33.9 0 11.6-2.2 22.9-6.7 33.9s-10.2 21.9-19.1 29.8v-.3zm-87.4-17.9c1.7.6 3.3 1.1 4.9 1.5 1.6.4 3.1.7 4.5.9 11.6 1.4 22.4-.4 32.6-5.4 10.1-5 16.9-12.4 20.3-22 1.2-3.4 2.1-7.1 2.7-11 .6-3.9.9-7.9.9-11.9-.5-8.8-3-17.2-7.6-25.2-4.6-7.9-11.9-13.7-22.1-17.3-2.2-.8-4.5-1.4-6.9-1.8-2.4-.4-4.7-.7-6.9-.9-11.1-.8-21.5 1.3-31.1 6.3-9.7 5-16.2 12.1-19.5 21.1-1.2 3.4-2.1 7-2.7 10.7-.6 3.7-.8 7.4-.5 11 .2 9.5 2.8 18.4 7.8 26.7 4.9 8.3 12.8 14.2 23.7 17.6v-.3h-.1zM322.2 187.8c-8.7 7.9-19.2 13.7-31.5 17.4-12.3 3.7-26 4.1-39 4.1-13.1 0-26.9.1-39.1-3.6-12.2-3.7-22.6-9.4-31.3-17.1-8.9-7.9-14.4-19.3-18.9-30.3-4.5-11-6.7-22.3-6.7-33.9 0-11.6 2.2-22.9 6.7-33.9s9.7-21.7 18.6-29.6c8.7-7.7 19.2-13.4 31.5-17.3 12.3-3.8 26.5-4.5 39.5-4.5 12.8 0 26.7.2 38.9 4 12.3 3.8 22.8 9.6 31.5 17.3 8.9 7.9 14.4 19.1 18.9 30.1 4.5 11 6.7 22.3 6.7 33.9 0 11.6-2.2 22.9-6.7 33.9s-10.2 21.9-19.1 29.8v-.3zm-87.4-17.9c1.7.6 3.3 1.1 4.9 1.5 1.6.4 3.1.7 4.5.9 11.6 1.4 22.4-.4 32.6-5.4 10.1-5 16.9-12.4 20.3-22 1.2-3.4 2.1-7.1 2.7-11 .6-3.9.9-7.9.9-11.9-.5-8.8-3-17.2-7.6-25.2-4.6-7.9-11.9-13.7-22.1-17.3-2.2-.8-4.5-1.4-6.9-1.8-2.4-.4-4.7-.7-6.9-.9-11.1-.8-21.5 1.3-31.1 6.3-9.7 5-16.2 12.1-19.5 21.1-1.2 3.4-2.1 7-2.7 10.7-.6 3.7-.8 7.4-.5 11 .2 9.5 2.8 18.4 7.8 26.7 4.9 8.3 12.8 14.2 23.7 17.6v-.3h-.1z" id="Shape" transform="translate(0 112)"/><path id="Shape" d="M1381.2 42l37.1 49.5 38-49.5h52.5l-63.9 83 63 80.9h-53.1l-36.4-47.6-36.7 47.6h-52.8l63.6-81.8-64.4-82.1z" transform="translate(0 112)"/></g></g><g id="bottom"><g id="Group"><path d="M342.2 405.9l-227.1-34c21.9-9.2 71.9-32.8 110.8-62.1 38.5-29 70.5-71.2 83.4-90 11.2-8.4 20.6-19.3 27.3-32.1l38.2-72.4c9.1 19.2 25.8 58.8 35.3 108.4 9.1 46.1 1.4 116-4 153.6-13.6 20.8-38.4 32.4-63.9 28.6z" id="Shape" fill="url(#linearGradient-1)" transform="translate(1520 2)"/><path d="M226.1 310.8c-39 29.2-89 51.8-110.9 61.1-.7-.1-1.9-.3-1.9-.3-2.2-.4-4.2-1.6-5.6-3.4L.8 231.2l4.6 2.5c1.9 1 4 1.5 6.1 1.6l238.2 3.8c22 .4 42.9-6.7 59.7-19.4-13 18.8-45 62-83.3 91.1z" id="Shape" fill="url(#linearGradient-2)" transform="translate(1520 2)"/><path d="M413 363.5c-1.8 5-4.1 9.6-7 13.95 5-38.45 13.2-107.65 3.5-153.75-8.8-49.7-26-88.7-34.8-108.2L435.7.4l48.9 157.9c.5 1.5.4 3.1-.1 4.6L413 363.5z" id="Shape" fill="url(#linearGradient-3)" transform="translate(1520 2)"/></g></g><g id="up"><g id="Group"><path d="M396.1 14.4l-5.3 9.3c-21.8-1.2-105.1-1.2-183.5 60.9-64.4 51-81.7 117.1-85.8 139L8 223.7c-6.4 0-9.8-7.5-5.5-12.3L142 54.6c7.6-8.5 17.9-14.3 29.1-16.2L386.8 1.1c7.4-1.2 13 6.7 9.3 13.3z" id="Shape" fill="url(#linearGradient-4)" transform="translate(1537 -1)"/><path d="M390.8 23.6L311.3 163l-74.1 3.5c-10.6.5-20.3 6-26.2 14.9l-27.7 42.1h-61.8c4.1-22 21.5-88.1 85.8-139 78.4-62 161.7-62.1 183.5-60.9z" id="Shape" fill="url(#linearGradient-5)" transform="translate(1537 -1)"/></g></g></g></g></g></svg>